{
  "accessors": [
    {
      "bufferView": 2,
      "componentType": 5126,
      "count": 65532,
      "max": [
        2.621514081954956,
        25.46033477783203,
        2.0529160499572754
      ],
      "min": [
        -2.159140110015869,
        22.39289093017578,
        -1.5910170078277588
      ],
      "type": "VEC3"
    },
    {
      "bufferView": 2,
      "byteOffset": 786384,
      "componentType": 5126,
      "count": 65532,
      "max": [
        0.9999499917030334,
        0.9999953508377075,
        0.999984860420227
      ],
      "min": [
        -0.9999538660049438,
        -0.9999475479125977,
        -0.9999432563781738
      ],
      "type": "VEC3"
    },
    {
      "bufferView": 1,
      "componentType": 5126,
      "count": 65532,
      "max": [
        0.9999340176582336,
        0.9989830255508423
      ],
      "min": [
        2.9000000722589903e-05,
        0.002326000016182661
      ],
      "type": "VEC2"
    },
    {
      "bufferView": 0,
      "componentType": 5125,
      "count": 344736,
      "type": "SCALAR"
    },
    {
      "bufferView": 2,
      "byteOffset": 1572768,
      "componentType": 5126,
      "count": 65532,
      "max": [
        2.155318021774292,
        25.041805267333984,
        1.658120036125183
      ],
      "min": [
        -1.1326099634170532,
        22.29945945739746,
        -1.5274169445037842
      ],
      "type": "VEC3"
    },
    {
      "bufferView": 2,
      "byteOffset": 2359152,
      "componentType": 5126,
      "count": 65532,
      "max": [
        0.999952495098114,
        0.9999974966049194,
        0.9999619722366333
      ],
      "min": [
        -0.9999967813491821,
        -0.9999854564666748,
        -0.9999873638153076
      ],
      "type": "VEC3"
    },
    {
      "bufferView": 1,
      "byteOffset": 524256,
      "componentType": 5126,
      "count": 65532,
      "max": [
        0.9975569844245911,
        0.9989789724349976
      ],
      "min": [
        0.0001140000022132881,
        0.00044299999717622995
      ],
      "type": "VEC2"
    },
    {
      "bufferView": 0,
      "byteOffset": 1378944,
      "componentType": 5125,
      "count": 336711,
      "type": "SCALAR"
    },
    {
      "bufferView": 2,
      "byteOffset": 3145536,
      "componentType": 5126,
      "count": 10249,
      "max": [
        2.148181915283203,
        24.858318328857422,
        1.3643109798431396
      ],
      "min": [
        -0.9509680271148682,
        22.58360481262207,
        -1.51670503616333
      ],
      "type": "VEC3"
    },
    {
      "bufferView": 2,
      "byteOffset": 3268524,
      "componentType": 5126,
      "count": 10249,
      "max": [
        0.9998852610588074,
        0.9998860955238342,
        0.9996829032897949
      ],
      "min": [
        -0.999930739402771,
        -0.9999911189079285,
        -0.9998712539672852
      ],
      "type": "VEC3"
    },
    {
      "bufferView": 1,
      "byteOffset": 1048512,
      "componentType": 5126,
      "count": 10249,
      "max": [
        0.999638020992279,
        0.9985250234603882
      ],
      "min": [
        0.0030169999226927757,
        0.005001000128686428
      ],
      "type": "VEC2"
    },
    {
      "bufferView": 0,
      "byteOffset": 2725788,
      "componentType": 5125,
      "count": 45264,
      "type": "SCALAR"
    }
  ],
  "asset": {
    "extras": {
      "author": "Nik (https://sketchfab.com/nikska)",
      "license": "CC-BY-NC-ND-4.0 (http://creativecommons.org/licenses/by-nc-nd/4.0/)",
      "source": "https://sketchfab.com/3d-models/coral-v20-34bf98fb6c9245e5be226eed5f0bd6fd",
      "title": "Coral v2.0"
    },
    "generator": "Sketchfab-12.68.0",
    "version": "2.0"
  },
  "bufferViews": [
    {
      "buffer": 0,
      "byteLength": 2906844,
      "name": "floatBufferViews",
      "target": 34963
    },
    {
      "buffer": 0,
      "byteLength": 1130504,
      "byteOffset": 2906844,
      "byteStride": 8,
      "name": "floatBufferViews",
      "target": 34962
    },
    {
      "buffer": 0,
      "byteLength": 3391512,
      "byteOffset": 4037348,
      "byteStride": 12,
      "name": "floatBufferViews",
      "target": 34962
    }
  ],
  "buffers": [
    {
      "byteLength": 7428860,
      "uri": "scene.bin"
    }
  ],
  "extensionsUsed": [
    "KHR_materials_unlit"
  ],
  "images": [
    {
      "uri": "textures/Coral_baseColor.jpeg"
    }
  ],
  "materials": [
    {
      "doubleSided": true,
      "extensions": {
        "KHR_materials_unlit": {}
      },
      "name": "Coral",
      "pbrMetallicRoughness": {
        "baseColorTexture": {
          "index": 0
        },
        "metallicFactor": 0.0
      }
    }
  ],
  "meshes": [
    {
      "name": "Object_0",
      "primitives": [
        {
          "attributes": {
            "NORMAL": 1,
            "POSITION": 0,
            "TEXCOORD_0": 2
          },
          "indices": 3,
          "material": 0,
          "mode": 4
        }
      ]
    },
    {
      "name": "Object_1",
      "primitives": [
        {
          "attributes": {
            "NORMAL": 5,
            "POSITION": 4,
            "TEXCOORD_0": 6
          },
          "indices": 7,
          "material": 0,
          "mode": 4
        }
      ]
    },
    {
      "name": "Object_2",
      "primitives": [
        {
          "attributes": {
            "NORMAL": 9,
            "POSITION": 8,
            "TEXCOORD_0": 10
          },
          "indices": 11,
          "material": 0,
          "mode": 4
        }
      ]
    }
  ],
  "nodes": [
    {
      "children": [
        1
      ],
      "matrix": [
        -0.9631204605102539,
        0.11886482685804373,
        -0.24139212071895597,
        0.0,
        0.041748203337192535,
        -0.8202540278434752,
        -0.5704738497734072,
        0.0,
        -0.26581212878227234,
        -0.5595127344131472,
        0.7850410342216491,
        0.0,
        11.069706916809082,
        7.475119590759278,
        -3.2498342990875226,
        1.0
      ],
      "name": "Sketchfab_model"
    },
    {
      "children": [
        2,
        3,
        4
      ],
      "name": "Coral.obj.cleaner.materialmerger.gles"
    },
    {
      "mesh": 0,
      "name": "Object_2"
    },
    {
      "mesh": 1,
      "name": "Object_3"
    },
    {
      "mesh": 2,
      "name": "Object_4"
    }
  ],
  "samplers": [
    {
      "magFilter": 9729,
      "minFilter": 9987,
      "wrapS": 10497,
      "wrapT": 10497
    }
  ],
  "scene": 0,
  "scenes": [
    {
      "name": "Sketchfab_Scene",
      "nodes": [
        0
      ]
    }
  ],
  "textures": [
    {
      "sampler": 0,
      "source": 0
    }
  ]
}
